<svg width="16" height="16" viewBox="0 0 16 16" fill="none" xmlns="http://www.w3.org/2000/svg">
<mask id="mask0_215_8" style="mask-type:luminance" maskUnits="userSpaceOnUse" x="0" y="0" width="16" height="16">
<path d="M15.886 0.652344H0.827148V15.7112H15.886V0.652344Z" fill="white"/>
</mask>
<g mask="url(#mask0_215_8)">
<path d="M8.47151 1.74805C7.22343 1.74805 6.02647 2.24384 5.14395 3.12636C4.26142 4.00889 3.76562 5.20585 3.76562 6.45393C3.76562 9.98336 8.47151 15.1934 8.47151 15.1934C8.47151 15.1934 13.1774 9.98336 13.1774 6.45393C13.1774 5.20585 12.6816 4.00889 11.799 3.12636C10.9166 2.24384 9.7196 1.74805 8.47151 1.74805Z" fill="white"/>
<path d="M8.35748 4.06882C8.86087 4.06882 9.34365 4.26878 9.69961 4.62473C10.0556 4.98069 10.2556 5.46346 10.2556 5.96685C10.2556 6.2161 10.2064 6.46292 10.111 6.69321C10.0157 6.92348 9.87589 7.13273 9.69961 7.30897C9.52333 7.48522 9.31411 7.62503 9.08383 7.72041C8.85355 7.8158 8.60673 7.86489 8.35748 7.86489C7.85409 7.86489 7.37132 7.66492 7.01536 7.30897C6.65941 6.95302 6.45944 6.47025 6.45944 5.96685C6.45944 5.46346 6.65941 4.98069 7.01536 4.62473C7.37132 4.26878 7.85409 4.06882 8.35748 4.06882ZM8.35748 0.652344C9.767 0.652344 11.1187 1.21226 12.1154 2.20893C13.112 3.20559 13.672 4.55736 13.672 5.96685C13.672 9.95275 8.35748 15.8366 8.35748 15.8366C8.35748 15.8366 3.04297 9.95275 3.04297 5.96685C3.04297 4.55736 3.60289 3.20559 4.59955 2.20893C5.59622 1.21226 6.94799 0.652344 8.35748 0.652344ZM8.35748 2.17078C7.3507 2.17078 6.38515 2.57072 5.67325 3.28262C4.96134 3.99452 4.56141 4.96008 4.56141 5.96685C4.56141 6.72607 4.56141 8.2445 8.35748 13.3388C12.1535 8.2445 12.1535 6.72607 12.1535 5.96685C12.1535 4.96008 11.7536 3.99452 11.0417 3.28262C10.3298 2.57072 9.36427 2.17078 8.35748 2.17078Z" fill="#FF5A5F"/>
</g>
</svg>
